Coordinates
nRows=14
nColumns=24

# SIMM Motion File Header:
name Coordinates
datacolumns 24
datarows 14
otherdata 1
range 0.73567000000000005000 0.74866999999999995000
endheader
time	pelvis_tx	pelvis_ty	pelvis_tz	pelvis_tilt	pelvis_list	pelvis_rotation	hip_flexion_r	hip_adduction_r	hip_rotation_r	knee_angle_r	ankle_angle_r	subtalar_angle_r	mtp_angle_r	hip_flexion_l	hip_adduction_l	hip_rotation_l	knee_angle_l	ankle_angle_l	subtalar_angle_l	mtp_angle_l	lumbar_extension	lumbar_bending	lumbar_rotation
      0.73567000000000005000	      1.47243644826351590000	      0.95488229284305293000	     -0.18709901252682040000	     -2.48686256962372140000	      5.17059900338536420000	     -4.09451181123637920000	     23.34109284379615400000	     -6.81515228786486560000	      9.70023135311221910000	    -54.14272959008066300000	      0.28412077515460360000	     -0.00000000000002375343	     -0.00000000000026553020	      1.40326290109510170000	     11.68963511747157300000	      3.90109270134044510000	     -7.35375077062566440000	      6.68314334923710970000	     -0.00000000000004662214	      0.00000000000011461294	      1.24126474549348290000	     -3.69581650879441350000	      0.35217325943017019000
      0.73667000000000005000	      1.47376463852559380000	      0.95495313209665877000	     -0.18709101568842762000	     -2.48352117058382850000	      5.14142088640749680000	     -4.08306721563300100000	     23.44117339053652700000	     -6.76048717783595520000	      9.74952749668828030000	    -53.89699478098646800000	      0.35699333722901583000	     -0.00000000000002374314	     -0.00000000000026535272	      1.23654922529253720000	     11.65776463250137200000	      3.94566173157493160000	     -7.22725629963835910000	      6.66945626445665770000	     -0.00000000000004654231	      0.00000000000011456309	      1.22528365219496260000	     -3.67161489673918510000	      0.34502054988509490000
      0.73767000000000005000	      1.47509282878767170000	      0.95502397135026462000	     -0.18708301885003487000	     -2.48017977154393510000	      5.11224276942962950000	     -4.07162262002962370000	     23.54125393727689500000	     -6.70582206780704480000	      9.79882364026434160000	    -53.65125997189227300000	      0.42986589930342800000	     -0.00000000000002373285	     -0.00000000000026517524	      1.06983554948997290000	     11.62589414753117000000	      3.99023076180941860000	     -7.10076182865105390000	      6.65576917967620570000	     -0.00000000000004646247	      0.00000000000011451324	      1.20930255889644260000	     -3.64741328468395620000	      0.33786784034001960000
      0.73867000000000005000	      1.47642199083460390000	      0.95509016290482251000	     -0.18707420210688325000	     -2.47653813944414480000	      5.08298901944709770000	     -4.05936463871505810000	     23.63876129253545600000	     -6.65148627975319600000	      9.84572742237215160000	    -53.40046749411126100000	      0.50028434025572788000	     -0.00000000000002373275	     -0.00000000000026498447	      0.90226562251351494000	     11.59359717423029100000	      4.03870242046860730000	     -6.97348426558462990000	      6.64084827376657660000	     -0.00000000000004638144	      0.00000000000011444622	      1.19314046126695410000	     -3.62359897676220260000	      0.33061400099643906000
      0.73967000000000005000	      1.47775147680982080000	      0.95515480522636453000	     -0.18706511206214535000	     -2.47279642965772250000	      5.05371005846301100000	     -4.04683552883009770000	     23.73541091730008300000	     -6.59726026569103400000	      9.89183375065721290000	    -53.14798912676798900000	      0.56988474083399099000	     -0.00000000000002373604	     -0.00000000000026478926	      0.73441027847909257000	     11.56115803815252200000	      4.08847495526936110000	     -6.84594567182516740000	      6.62551609414722090000	     -0.00000000000004630000	      0.00000000000011437347	      1.17691802886047610000	     -3.59991377021827400000	      0.32332645172002344000
      0.74067000000000005000	      1.47908190842352720000	      0.95521460170921579000	     -0.18705515407268497000	     -2.46877211917447910000	      5.02433521376408180000	     -4.03353856035002780000	     23.82956390440304200000	     -6.54337536881500000000	      9.93532385139269540000	    -52.89064685796776600000	      0.63702612648427070000	     -0.00000000000002374048	     -0.00000000000026459796	      0.56577498018137240000	     11.52826799628159400000	      4.14219440505950590000	     -6.71770003895920010000	      6.60894994596558490000	     -0.00000000000004623805	      0.00000000000011438453	      1.16052812630090680000	     -3.57658879228266540000	      0.31599823964093104000
      0.74167000000000005000	      1.48041265525006320000	      0.95527278291250328000	     -0.18704490676831712000	     -2.46465360845896250000	      4.99492840782687160000	     -4.01998563900492110000	     23.92288467895211200000	     -6.48960417766767610000	      9.97794187627831700000	    -52.63168328868188400000	      0.70334784049188759000	     -0.00000000000002374530	     -0.00000000000026440797	      0.39687969712921900000	     11.49522765247961500000	      4.19722949317944940000	     -6.58921872639106440000	      6.59197247492985470000	     -0.00000000000004618259	      0.00000000000011442351	      1.14408240035697380000	     -3.55338389054983010000	      0.30865647329427970000
      0.74267000000000005000	      1.48174374663486530000	      0.95532911758436578000	     -0.18703435723528239000	     -2.46042720884230310000	      4.96546329337284130000	     -4.00613663435036930000	     24.01528368283906900000	     -6.43596371470796760000	     10.01945824029215100000	    -52.37097668761543200000	      0.76876040704061888000	     -0.00000000000002375163	     -0.00000000000026420938	      0.22771900910850806000	     11.46199632008400100000	      4.25376631331936750000	     -6.46052924427063500000	      6.57458940486147010000	     -0.00000000000004612526	      0.00000000000011446533	      1.12756522416356740000	     -3.53028715312793650000	      0.30129066667083348000
      0.74367000000000005000	      1.48307587169446590000	      0.95537991266195288000	     -0.18702290101624711000	     -2.45587714252221630000	      4.93582325336835300000	     -3.99139937976748090000	     24.10491737473967100000	     -6.38271543631110740000	     10.05766962169061600000	    -52.10504099120725400000	      0.83144553121269149000	     -0.00000000000002376247	     -0.00000000000026398503	      0.05776210618212392100	     11.42819202190748500000	      4.31480832951921300000	     -6.33121525349332790000	      6.55598953769512250000	     -0.00000000000004606230	      0.00000000000011451562	      1.11083369722174120000	     -3.50751490863887040000	      0.29385273921700250000
      0.74467000000000005000	      1.48440799675406660000	      0.95543070773953997000	     -0.18701144479721182000	     -2.45132707620213000000	      4.90618321336386560000	     -3.97666212518459220000	     24.19455106664027600000	     -6.32946715791424810000	     10.09588100308908100000	    -51.83910529479907600000	      0.89413065538476411000	     -0.00000000000002377330	     -0.00000000000026376069	     -0.11219479674426021000	     11.39438772373096700000	      4.37585034571905940000	     -6.20190126271601990000	      6.53738967052877570000	     -0.00000000000004599935	      0.00000000000011456592	      1.09410217027991500000	     -3.48474266414980380000	      0.28641481176317146000
      0.74567000000000005000	      1.48574106777768320000	      0.95547646110651185000	     -0.18699910629220134000	     -2.44640466287971800000	      4.87635726586245170000	     -3.96118307915142820000	     24.28165075976136200000	     -6.27657599100542730000	     10.13089371198846700000	    -51.56863784224350400000	      0.95436004735523705000	     -0.00000000000002377281	     -0.00000000000026356407	     -0.28291818241216221000	     11.36003640651920000000	      4.44092476045770200000	     -6.07206438898946920000	      6.51772952426900170000	     -0.00000000000004595809	      0.00000000000011466510	      1.07708082817913110000	     -3.46223297735769810000	      0.27896840023237823000
      0.74667000000000006000	      1.48707445412263860000	      0.95552053390327873000	     -0.18698647369186583000	     -2.44135813388986420000	      4.84646934919539610000	     -3.94545676930150570000	     24.36790578662261100000	     -6.22380386125928540000	     10.16484019672149100000	    -51.29665980430546300000	      1.01377086192517750000	     -0.00000000000002376854	     -0.00000000000026337670	     -0.45389706232723670000	     11.32550274962901700000	      4.50734330804260970000	     -5.94205322094650510000	      6.49771595164475180000	     -0.00000000000004592406	      0.00000000000011478058	      1.05996288102536160000	     -3.43981080979791320000	      0.27151916067593085000
      0.74767000000000006000	      1.48840877701449200000	      0.95555941150502532000	     -0.18697288233379925000	     -2.43592710954127690000	      4.81636638932359240000	     -3.92905801331803330000	     24.45167258821970400000	     -6.17137490363234060000	     10.19538610421789900000	    -51.02035141973907200000	      1.07071654834897760000	     -0.00000000000002376470	     -0.00000000000026318931	     -0.62559959201490423000	     11.29038573064315700000	      4.57773295232340960000	     -5.81159290601440230000	      6.47672127529978780000	     -0.00000000000004588849	      0.00000000000011487040	      1.04253755004226070000	     -3.41761371849528750000	      0.26413207839264263000
      0.74866999999999995000	      1.48974341208864460000	      0.95559655737509852000	     -0.18695897138982231000	     -2.43036792007311190000	      4.78619174838354320000	     -3.91243510862337950000	     24.53460998139539800000	     -6.11906033671180080000	     10.22479848596876600000	    -50.74259958629657800000	      1.12684052539072250000	     -0.00000000000002376101	     -0.00000000000026300192	     -0.79754333829341761000	     11.25507425762540900000	      4.64944629550283570000	     -5.68098287545260040000	      6.45539956438125450000	     -0.00000000000004585242	      0.00000000000011495166	      1.02500975778271770000	     -3.39549165261171740000	      0.25676571520040836000
